Coordinates
version=1
nRows=7
nColumns=63
inDegrees=yes

Units are S.I. units (second, meters, Newtons, ...)
If the header above contains a line with 'inDegrees', this indicates whether rotational values are in degrees (yes) or radians (no).

endheader
time	pelvis_tilt	pelvis_list	pelvis_rotation	pelvis_tx	pelvis_ty	pelvis_tz	hip_flexion_r	hip_adduction_r	hip_rotation_r	knee_angle_r	knee_angle_r_beta	ankle_angle_r	subtalar_angle_r	mtp_angle_r	hip_flexion_l	hip_adduction_l	hip_rotation_l	knee_angle_l	knee_angle_l_beta	ankle_angle_l	subtalar_angle_l	mtp_angle_l	L5_S1_Flex_Ext	L5_S1_Lat_Bending	L5_S1_axial_rotation	L4_L5_Flex_Ext	L4_L5_Lat_Bending	L4_L5_axial_rotation	L3_L4_Flex_Ext	L3_L4_Lat_Bending	L3_L4_axial_rotation	L2_L3_Flex_Ext	L2_L3_Lat_Bending	L2_L3_axial_rotation	L1_L2_Flex_Ext	L1_L2_Lat_Bending	L1_L2_axial_rotation	L1_T12_Flex_Ext	L1_T12_Lat_Bending	L1_T12_axial_rotation	Abs_r3	Abs_r2	Abs_r1	Abs_t1	Abs_t2	neck_flexion	neck_bending	neck_rotation	arm_flex_r	arm_add_r	arm_rot_r	elbow_flex_r	pro_sup_r	wrist_flex_r	wrist_dev_r	arm_flex_l	arm_add_l	arm_rot_l	elbow_flex_l	pro_sup_l	wrist_flex_l	wrist_dev_l
      2.08333333	     -0.53700362	     -2.19400818	     87.43206799	      0.13822855	      0.96722521	      0.60199237	      2.41339441	     -1.91021183	    -19.06675237	     15.02789494	      0.26228625	     32.13569625	     16.64604637	      0.00000000	      0.98113799	     -0.84971616	     12.94787942	     10.60160828	      0.18503297	     31.66779017	     -1.15912051	      0.00000000	     -0.05875111	     -0.04946876	      0.90405837	     -0.10910669	     -0.06579345	      0.96056202	     -0.09652220	     -0.12027834	      0.96056202	     -0.06714665	     -0.12027834	      0.79105107	     -0.05455628	     -0.10087669	      0.73454743	     -0.03357039	     -0.07662710	      0.67804378	     -0.41965332	     -0.55960047	      5.02810144	      0.00000000	      0.00000000	     22.64643766	     -3.09279652	     -4.86782060	    -19.25684041	    -55.47137308	    -49.33951972	    110.10874808	     54.60657842	     -1.55204956	     11.49287581	      4.21600051	    -43.07932629	    -29.76743034	    103.93808628	     88.51669211	     20.33419881	      3.71701231
      2.10000000	     -0.54966476	     -2.38675020	     87.45628106	      0.13838073	      0.96748043	      0.60131233	      2.63965780	     -1.92464020	    -19.31327167	     15.01133247	      0.26199718	     32.41868838	     16.97409204	      0.00000000	      1.07128463	     -0.88723487	     13.03860393	     10.34386495	      0.18053450	     31.76115964	     -1.18420214	      0.00000000	     -0.04068743	     -0.04651631	      0.72578361	     -0.07556062	     -0.06186669	      0.77114509	     -0.06684537	     -0.11309975	      0.77114509	     -0.04650166	     -0.11309975	      0.63506066	     -0.03778234	     -0.09485606	      0.58969918	     -0.02324879	     -0.07205376	      0.54433771	     -0.29062621	     -0.52620178	      4.03659070	      0.00000000	      0.00000000	     23.17573580	     -2.89942685	     -3.84635485	    -17.92880653	    -55.22115356	    -49.08266678	    109.49214613	     57.09516049	     -1.70104272	     13.66927440	      3.48050680	    -41.63261551	    -33.90900927	    103.90145795	     88.51389717	     25.08256388	      6.80193883
      2.11666667	     -0.48093942	     -2.61484508	     87.36765241	      0.13830241	      0.96743802	      0.60068193	      2.89057508	     -1.86028533	    -19.33699544	     15.03687049	      0.26244290	     32.56496342	     17.12092445	      0.00000000	      1.24199550	     -0.98950029	     12.89388350	     10.19467453	      0.17793064	     31.95170819	     -1.06132091	      0.00000000	     -0.01177121	     -0.02281096	      0.61605839	     -0.02186031	     -0.03033858	      0.65456204	     -0.01933892	     -0.05546257	      0.65456204	     -0.01345331	     -0.05546257	      0.53905109	     -0.01093074	     -0.04651611	      0.50054744	     -0.00672607	     -0.03533418	      0.46204379	     -0.08408057	     -0.25804213	      3.42633196	      0.00000000	      0.00000000	     23.55450511	     -2.96398848	     -2.60867694	    -17.30295877	    -55.17308542	    -49.49091495	    109.13909906	     60.61254923	     -1.71929235	     16.00877338	      2.68582951	    -40.87060392	    -36.37255239	    103.85827797	     88.57504637	     26.04000044	      8.58490722
      2.13333333	     -0.71467345	     -2.62420119	     87.39584626	      0.13872887	      0.96758247	      0.60053156	      2.87361121	     -2.06877824	    -19.30976011	     15.02350522	      0.26220963	     32.60386709	     17.07412963	      0.00000000	      1.25192920	     -0.82372940	     12.53599649	     10.08400283	      0.17599905	     32.05235695	     -0.51722371	      0.00000000	     -0.01462883	     -0.04761642	      0.40717478	     -0.02716721	     -0.06332984	      0.43262320	     -0.02403371	     -0.11577457	      0.43262320	     -0.01671929	     -0.11577457	      0.35627793	     -0.01358434	     -0.09709941	      0.33082951	     -0.00835892	     -0.07375784	      0.30538108	     -0.10449230	     -0.53864648	      2.26458396	      0.00000000	      0.00000000	     23.72683154	     -2.59150669	     -1.47093078	    -14.92496010	    -54.86097812	    -47.98999405	    108.55649096	     67.69126012	     -2.22776467	     16.94841484	      1.61074744	    -40.69847476	    -39.14415770	    103.89548399	     88.51359499	     27.27861593	     10.51309262
      2.15000000	     -0.84514275	     -2.68547520	     87.34661119	      0.13893291	      0.96744706	      0.60031079	      2.89925869	     -2.18088516	    -19.11222173	     15.04234865	      0.26253851	     32.47592632	     16.90469918	      0.00000000	      1.31019982	     -0.72657183	     12.34105836	     10.03512056	      0.17514589	     32.13415338	     -0.28802614	      0.00000000	     -0.00768736	     -0.05157398	      0.35736540	     -0.01427620	     -0.06859340	      0.37970074	     -0.01262957	     -0.12539699	      0.37970074	     -0.00878589	     -0.12539699	      0.31269472	     -0.00713849	     -0.10516967	      0.29035939	     -0.00439256	     -0.07988810	      0.26802405	     -0.05491007	     -0.58341523	      1.98755914	      0.00000000	      0.00000000	     23.87075436	     -2.74783606	     -0.70498186	    -14.60101146	    -54.49649148	    -48.46334344	    108.27923504	     72.54966554	     -2.18589176	     17.23390899	      1.34975732	    -40.69833947	    -39.95780962	    103.63888966	     88.53340232	     26.65004660	     11.49097784
      2.16666667	     -0.89041454	     -2.70235651	     87.29467511	      0.13922777	      0.96724761	      0.60008809	      2.85182154	     -2.21918187	    -19.06222356	     15.06849986	      0.26299494	     32.38581627	     16.92678461	      0.00000000	      1.32847335	     -0.70352854	     12.29764333	     10.02950311	      0.17504785	     32.15235812	     -0.31693746	      0.00000000	     -0.00423936	     -0.05050067	      0.33458020	     -0.00787291	     -0.06716590	      0.35549147	     -0.00696484	     -0.12278734	      0.35549147	     -0.00484516	     -0.12278734	      0.29275768	     -0.00393667	     -0.10298097	      0.27184642	     -0.00242237	     -0.07822554	      0.25093515	     -0.03028131	     -0.57127372	      1.86083472	      0.00000000	      0.00000000	     23.89553572	     -2.80267463	     -0.61836194	    -14.61030346	    -54.33140538	    -48.86033444	    107.80163646	     72.61541640	     -2.27777818	     17.23085698	      1.33070627	    -40.81120558	    -40.33825899	    103.18968537	     88.57229484	     26.54040252	     11.59558358
      2.18333333	     -1.03309124	     -2.76578338	     87.42204644	      0.13904092	      0.96716966	      0.59997419	      2.86586645	     -2.34469741	    -18.86553462	     15.07513290	      0.26311070	     32.17869094	     16.50703303	      0.00000000	      1.46182953	     -0.56004448	     12.28508068	     10.12776391	      0.17676283	     32.12713089	     -0.17610865	      0.00000000	     -0.00227849	     -0.04657090	      0.42595233	     -0.00423139	     -0.06193929	      0.45257435	     -0.00374334	     -0.11323248	      0.45257435	     -0.00260409	     -0.11323248	      0.37270829	     -0.00211581	     -0.09496737	      0.34608627	     -0.00130193	     -0.07213832	      0.31946425	     -0.01627506	     -0.52681929	      2.36901909	      0.00000000	      0.00000000	     24.15511412	     -3.32981080	      0.47224907	    -16.21593289	    -53.54855964	    -51.19906620	    107.29569903	     75.19389854	     -1.58762471	     13.29582930	      2.47565281	    -40.64030445	    -39.16944594	    102.64866927	     88.53569513	     25.38743058	     12.91620940
